<svg width="30" height="30" viewBox="0 0 30 30" fill="none" xmlns="http://www.w3.org/2000/svg">
<path d="M3.56311 24.2731L3.41667 24.4196V24.6267V26.0834V26.5834H3.91667H5.37333H5.58044L5.72689 26.4369L20.0719 12.0919L20.4254 11.7384L20.0719 11.3848L18.6152 9.92814L18.2617 9.57458L17.9081 9.92814L3.56311 24.2731ZM24.7319 1.56238L24.7323 1.56274L28.4373 5.26774L28.4376 5.26811C28.5379 5.36814 28.6174 5.48697 28.6717 5.61778C28.7259 5.74859 28.7539 5.88882 28.7539 6.03044C28.7539 6.17206 28.7259 6.31229 28.6717 6.4431C28.6174 6.57391 28.5379 6.69274 28.4376 6.79278L28.4373 6.79314L25.8933 9.33708L20.6629 4.10669L23.2069 1.56274L23.2072 1.56238C23.3073 1.46214 23.4261 1.38261 23.5569 1.32835C23.6877 1.27409 23.828 1.24615 23.9696 1.24615C24.1112 1.24615 24.2514 1.27409 24.3822 1.32835C24.5131 1.38261 24.6319 1.46214 24.7319 1.56238ZM23.4921 11.7384L6.48039 28.75H1.25V23.5196L18.2617 6.50796L23.4921 11.7384Z" fill="white" stroke="black"/>
</svg>
